# xmcd
#
# Track frame offsets: 
#        150
#        20837
#        45718
#        89517
#        115806
#        139561
#        169411
#        195578
#        240654
#        269161
#        295715
#
# Disc length: 4221 seconds
#
# Revision: 0
# Processed by: cddbd v1.5.2PL0 Copyright (c) Steve Scherf et al.
# Submitted via: ExactAudioCopy v1.0b1
#
DISCID=a3107b0b
DTITLE=Vincent Hayes Project - Reclamation
DYEAR=2010
DGENRE=Electric Blues
TTITLE0=Hit Me High, Hit Me Low
TTITLE1=Insecurities
TTITLE2=I've Got A Right To Change My Mind
TTITLE3=Middle Man
TTITLE4=I Just Want To Get You High Tonight
TTITLE5=Thank You Baby
TTITLE6=Double Talk
TTITLE7=Some Kind of Fool
TTITLE8=Halfway Out The Door
TTITLE9=Sticky Thigh Jive
TTITLE10=You Can Take Your Troubles
EXTD=
EXTT0=
EXTT1=
EXTT2=
EXTT3=
EXTT4=
EXTT5=
EXTT6=
EXTT7=
EXTT8=
EXTT9=
EXTT10=
PLAYORDER=
